<svg xmlns="http://www.w3.org/2000/svg" viewBox="0 0 40 10" fill="none" stroke="#333" stroke-width="1" stroke-linejoin="round">
  <rect x="0" y="0" width="40" height="10" rx="0.8"/>
  <line x1="0" y1="2" x2="40" y2="2" stroke="#666" stroke-width="0.7"/>
  <line x1="10" y1="2" x2="10" y2="10" stroke="#666" stroke-width="0.7"/>
  <line x1="20" y1="2" x2="20" y2="10" stroke="#666" stroke-width="0.7"/>
  <line x1="30" y1="2" x2="30" y2="10" stroke="#666" stroke-width="0.7"/>
  <g stroke="#999" stroke-width="0.5">
    <line x1="2" y1="4" x2="2" y2="9"/>
    <line x1="4" y1="4" x2="4" y2="9"/>
    <line x1="6" y1="4" x2="6" y2="9"/>
    <line x1="12" y1="4" x2="12" y2="9"/>
    <line x1="14" y1="4" x2="14" y2="9"/>
    <line x1="16" y1="4" x2="16" y2="9"/>
    <line x1="22" y1="4" x2="22" y2="9"/>
    <line x1="24" y1="4" x2="24" y2="9"/>
    <line x1="26" y1="4" x2="26" y2="9"/>
    <line x1="32" y1="4" x2="32" y2="9"/>
    <line x1="34" y1="4" x2="34" y2="9"/>
    <line x1="36" y1="4" x2="36" y2="9"/>
  </g>
</svg>
